<?xml version="1.0" encoding="UTF-8" standalone="no"?>
<!DOCTYPE svg PUBLIC "-//W3C//DTD SVG 1.1//EN"
 "http://www.w3.org/Graphics/SVG/1.1/DTD/svg11.dtd">
<!-- Generated by graphviz version 2.40.1 (20161225.0304)
 -->
<!-- Title: G Pages: 1 -->
<svg width="337pt" height="220pt"
 viewBox="0.00 0.00 337.00 220.00" xmlns="http://www.w3.org/2000/svg" xmlns:xlink="http://www.w3.org/1999/xlink">
<g id="graph0" class="graph" transform="scale(1 1) rotate(0) translate(4 216)">
<title>G</title>
<polygon fill="#ffffff" stroke="transparent" points="-4,4 -4,-216 333,-216 333,4 -4,4"/>
<g id="clust1" class="cluster">
<title>cluster_G</title>
<path fill="#808080" fill-opacity="0.094118" stroke="#000000" d="M20,-8C20,-8 309,-8 309,-8 315,-8 321,-14 321,-20 321,-20 321,-192 321,-192 321,-198 315,-204 309,-204 309,-204 20,-204 20,-204 14,-204 8,-198 8,-192 8,-192 8,-20 8,-20 8,-14 14,-8 20,-8"/>
</g>
<!-- reduction -->
<g id="node1" class="node">
<title>reduction</title>
<ellipse fill="#ffffff" fill-opacity="0.698039" stroke="#000000" cx="177" cy="-178" rx="43.506" ry="18"/>
<text text-anchor="middle" x="177" y="-173.8" font-family="Times,serif" font-size="14.00" fill="#000000">reduction</text>
</g>
<!-- reduction__median_background -->
<g id="node2" class="node">
<title>reduction__median_background</title>
<ellipse fill="#ffffff" fill-opacity="0.698039" stroke="#000000" cx="98" cy="-34" rx="82.1113" ry="18"/>
<text text-anchor="middle" x="98" y="-29.8" font-family="Times,serif" font-size="14.00" fill="#000000">median_background</text>
</g>
<!-- reduction&#45;&gt;reduction__median_background -->
<g id="edge3" class="edge">
<title>reduction&#45;&gt;reduction__median_background</title>
<path fill="none" stroke="#838b8b" stroke-dasharray="5,2" d="M149.6124,-163.754C134.7332,-154.5053 117.4832,-141.0053 108,-124 97.5669,-105.2911 95.407,-81.0013 95.669,-62.3718"/>
<polygon fill="#838b8b" stroke="#838b8b" points="99.1754,-62.2681 96.0589,-52.142 92.1805,-62.0014 99.1754,-62.2681"/>
</g>
<!-- reduction__reduce_image -->
<g id="node3" class="node">
<title>reduction__reduce_image</title>
<ellipse fill="#ffffff" fill-opacity="0.698039" stroke="#000000" cx="177" cy="-106" rx="59.901" ry="18"/>
<text text-anchor="middle" x="177" y="-101.8" font-family="Times,serif" font-size="14.00" fill="#000000">reduce_image</text>
</g>
<!-- reduction&#45;&gt;reduction__reduce_image -->
<g id="edge1" class="edge">
<title>reduction&#45;&gt;reduction__reduce_image</title>
<path fill="none" stroke="#838b8b" stroke-dasharray="5,2" d="M177,-159.8314C177,-152.131 177,-142.9743 177,-134.4166"/>
<polygon fill="#838b8b" stroke="#838b8b" points="180.5001,-134.4132 177,-124.4133 173.5001,-134.4133 180.5001,-134.4132"/>
</g>
<!-- reduction__segmentation -->
<g id="node4" class="node">
<title>reduction__segmentation</title>
<ellipse fill="#ffffff" fill-opacity="0.698039" stroke="#000000" cx="256" cy="-34" rx="57.0219" ry="18"/>
<text text-anchor="middle" x="256" y="-29.8" font-family="Times,serif" font-size="14.00" fill="#000000">segmentation</text>
</g>
<!-- reduction&#45;&gt;reduction__segmentation -->
<g id="edge2" class="edge">
<title>reduction&#45;&gt;reduction__segmentation</title>
<path fill="none" stroke="#838b8b" stroke-dasharray="5,2" d="M204.3876,-163.754C219.2668,-154.5053 236.5168,-141.0053 246,-124 256.4331,-105.2911 258.593,-81.0013 258.331,-62.3718"/>
<polygon fill="#838b8b" stroke="#838b8b" points="261.8195,-62.0014 257.9411,-52.142 254.8246,-62.2681 261.8195,-62.0014"/>
</g>
<!-- reduction__reduce_image&#45;&gt;reduction__median_background -->
<g id="edge4" class="edge">
<title>reduction__reduce_image&#45;&gt;reduction__median_background</title>
<path fill="none" stroke="#000000" d="M157.8763,-88.5708C147.955,-79.5286 135.6719,-68.3338 124.8179,-58.4417"/>
<polygon fill="#000000" stroke="#000000" points="126.97,-55.6675 117.2214,-51.5182 122.2547,-60.8411 126.97,-55.6675"/>
</g>
<!-- reduction__reduce_image&#45;&gt;reduction__segmentation -->
<g id="edge5" class="edge">
<title>reduction__reduce_image&#45;&gt;reduction__segmentation</title>
<path fill="none" stroke="#000000" d="M196.1237,-88.5708C206.192,-79.3946 218.6926,-68.0017 229.6635,-58.0029"/>
<polygon fill="#000000" stroke="#000000" points="232.2917,-60.3431 237.325,-51.0202 227.5764,-55.1695 232.2917,-60.3431"/>
</g>
</g>
</svg>
