<?xml version="1.0" encoding="UTF-8" standalone="no"?>
<!DOCTYPE svg PUBLIC "-//W3C//DTD SVG 1.1//EN"
 "http://www.w3.org/Graphics/SVG/1.1/DTD/svg11.dtd">
<!-- Generated by graphviz version 2.40.1 (20161225.0304)
 -->
<!-- Title: G Pages: 1 -->
<svg width="1092pt" height="292pt"
 viewBox="0.00 0.00 1092.00 292.00" xmlns="http://www.w3.org/2000/svg" xmlns:xlink="http://www.w3.org/1999/xlink">
<g id="graph0" class="graph" transform="scale(1 1) rotate(0) translate(4 288)">
<title>G</title>
<polygon fill="#ffffff" stroke="transparent" points="-4,4 -4,-288 1088,-288 1088,4 -4,4"/>
<g id="clust1" class="cluster">
<title>cluster_G</title>
<path fill="#808080" fill-opacity="0.094118" stroke="#000000" d="M20,-8C20,-8 1064,-8 1064,-8 1070,-8 1076,-14 1076,-20 1076,-20 1076,-264 1076,-264 1076,-270 1070,-276 1064,-276 1064,-276 20,-276 20,-276 14,-276 8,-270 8,-264 8,-264 8,-20 8,-20 8,-14 14,-8 20,-8"/>
</g>
<!-- sim_utilities -->
<g id="node1" class="node">
<title>sim_utilities</title>
<ellipse fill="#ffffff" fill-opacity="0.698039" stroke="#000000" cx="803" cy="-250" rx="53.6729" ry="18"/>
<text text-anchor="middle" x="803" y="-245.8" font-family="Times,serif" font-size="14.00" fill="#000000">sim_utilities</text>
</g>
<!-- sim_utilities__CrystalStr -->
<g id="node2" class="node">
<title>sim_utilities__CrystalStr</title>
<ellipse fill="#ffffff" fill-opacity="0.698039" stroke="#000000" cx="185" cy="-178" rx="45.9459" ry="18"/>
<text text-anchor="middle" x="185" y="-173.8" font-family="Times,serif" font-size="14.00" fill="#000000">CrystalStr</text>
</g>
<!-- sim_utilities&#45;&gt;sim_utilities__CrystalStr -->
<g id="edge3" class="edge">
<title>sim_utilities&#45;&gt;sim_utilities__CrystalStr</title>
<path fill="none" stroke="#838b8b" stroke-dasharray="5,2" d="M751.9007,-244.0467C636.8067,-230.6377 358.1055,-198.1676 239.6907,-184.3717"/>
<polygon fill="#838b8b" stroke="#838b8b" points="239.7538,-180.8555 229.4159,-183.1747 238.9437,-187.8085 239.7538,-180.8555"/>
</g>
<!-- sim_utilities__Detector -->
<g id="node3" class="node">
<title>sim_utilities__Detector</title>
<ellipse fill="#ffffff" fill-opacity="0.698039" stroke="#000000" cx="803" cy="-178" rx="40.5989" ry="18"/>
<text text-anchor="middle" x="803" y="-173.8" font-family="Times,serif" font-size="14.00" fill="#000000">Detector</text>
</g>
<!-- sim_utilities&#45;&gt;sim_utilities__Detector -->
<g id="edge1" class="edge">
<title>sim_utilities&#45;&gt;sim_utilities__Detector</title>
<path fill="none" stroke="#838b8b" stroke-dasharray="5,2" d="M803,-231.8314C803,-224.131 803,-214.9743 803,-206.4166"/>
<polygon fill="#838b8b" stroke="#838b8b" points="806.5001,-206.4132 803,-196.4133 799.5001,-206.4133 806.5001,-206.4132"/>
</g>
<!-- sim_utilities__GetProjectedVertex -->
<g id="node4" class="node">
<title>sim_utilities__GetProjectedVertex</title>
<ellipse fill="#ffffff" fill-opacity="0.698039" stroke="#000000" cx="941" cy="-178" rx="79.204" ry="18"/>
<text text-anchor="middle" x="941" y="-173.8" font-family="Times,serif" font-size="14.00" fill="#000000">GetProjectedVertex</text>
</g>
<!-- sim_utilities&#45;&gt;sim_utilities__GetProjectedVertex -->
<g id="edge2" class="edge">
<title>sim_utilities&#45;&gt;sim_utilities__GetProjectedVertex</title>
<path fill="none" stroke="#838b8b" stroke-dasharray="5,2" d="M832.2663,-234.7307C851.9272,-224.4728 878.1172,-210.8084 899.867,-199.4607"/>
<polygon fill="#838b8b" stroke="#838b8b" points="901.6377,-202.4847 908.8845,-194.7559 898.3997,-196.2786 901.6377,-202.4847"/>
</g>
<!-- sim_utilities__CrystalStr____init__ -->
<g id="node5" class="node">
<title>sim_utilities__CrystalStr____init__</title>
<ellipse fill="#ffffff" fill-opacity="0.698039" stroke="#000000" cx="56" cy="-106" rx="39.6731" ry="18"/>
<text text-anchor="middle" x="56" y="-101.8" font-family="Times,serif" font-size="14.00" fill="#000000">__init__</text>
</g>
<!-- sim_utilities__CrystalStr&#45;&gt;sim_utilities__CrystalStr____init__ -->
<g id="edge14" class="edge">
<title>sim_utilities__CrystalStr&#45;&gt;sim_utilities__CrystalStr____init__</title>
<path fill="none" stroke="#838b8b" stroke-dasharray="5,2" d="M158.5836,-163.256C138.7182,-152.1683 111.3437,-136.8895 89.8692,-124.9037"/>
<polygon fill="#838b8b" stroke="#838b8b" points="91.5039,-121.8079 81.0661,-119.9904 88.0923,-127.9203 91.5039,-121.8079"/>
</g>
<!-- sim_utilities__CrystalStr__addAtom -->
<g id="node6" class="node">
<title>sim_utilities__CrystalStr__addAtom</title>
<ellipse fill="#ffffff" fill-opacity="0.698039" stroke="#000000" cx="60" cy="-34" rx="43.0387" ry="18"/>
<text text-anchor="middle" x="60" y="-29.8" font-family="Times,serif" font-size="14.00" fill="#000000">addAtom</text>
</g>
<!-- sim_utilities__CrystalStr&#45;&gt;sim_utilities__CrystalStr__addAtom -->
<g id="edge13" class="edge">
<title>sim_utilities__CrystalStr&#45;&gt;sim_utilities__CrystalStr__addAtom</title>
<path fill="none" stroke="#838b8b" stroke-dasharray="5,2" d="M169.3513,-160.5641C159.928,-150.0226 147.7175,-136.2895 137,-124 117.8958,-102.0937 96.4132,-76.94 81.0031,-58.8037"/>
<polygon fill="#838b8b" stroke="#838b8b" points="83.5201,-56.3604 74.3804,-51.0015 78.1834,-60.8903 83.5201,-56.3604"/>
</g>
<!-- sim_utilities__CrystalStr__calStructFactor -->
<g id="node7" class="node">
<title>sim_utilities__CrystalStr__calStructFactor</title>
<ellipse fill="#ffffff" fill-opacity="0.698039" stroke="#000000" cx="185" cy="-34" rx="64.2614" ry="18"/>
<text text-anchor="middle" x="185" y="-29.8" font-family="Times,serif" font-size="14.00" fill="#000000">calStructFactor</text>
</g>
<!-- sim_utilities__CrystalStr&#45;&gt;sim_utilities__CrystalStr__calStructFactor -->
<g id="edge15" class="edge">
<title>sim_utilities__CrystalStr&#45;&gt;sim_utilities__CrystalStr__calStructFactor</title>
<path fill="none" stroke="#838b8b" stroke-dasharray="5,2" d="M168.0954,-161.1667C159.369,-151.2592 149.6071,-137.9597 145,-124 139.9856,-108.8061 139.9856,-103.1939 145,-88 148.3456,-77.8626 154.4097,-68.0734 160.8215,-59.6784"/>
<polygon fill="#838b8b" stroke="#838b8b" points="163.6505,-61.7475 167.2614,-51.787 158.2272,-57.3217 163.6505,-61.7475"/>
</g>
<!-- sim_utilities__CrystalStr__getGs -->
<g id="node8" class="node">
<title>sim_utilities__CrystalStr__getGs</title>
<ellipse fill="#ffffff" fill-opacity="0.698039" stroke="#000000" cx="185" cy="-106" rx="30.9793" ry="18"/>
<text text-anchor="middle" x="185" y="-101.8" font-family="Times,serif" font-size="14.00" fill="#000000">getGs</text>
</g>
<!-- sim_utilities__CrystalStr&#45;&gt;sim_utilities__CrystalStr__getGs -->
<g id="edge12" class="edge">
<title>sim_utilities__CrystalStr&#45;&gt;sim_utilities__CrystalStr__getGs</title>
<path fill="none" stroke="#838b8b" stroke-dasharray="5,2" d="M185,-159.8314C185,-152.131 185,-142.9743 185,-134.4166"/>
<polygon fill="#838b8b" stroke="#838b8b" points="188.5001,-134.4132 185,-124.4133 181.5001,-134.4133 188.5001,-134.4132"/>
</g>
<!-- sim_utilities__CrystalStr__getRecipVec -->
<g id="node9" class="node">
<title>sim_utilities__CrystalStr__getRecipVec</title>
<ellipse fill="#ffffff" fill-opacity="0.698039" stroke="#000000" cx="289" cy="-106" rx="54.5904" ry="18"/>
<text text-anchor="middle" x="289" y="-101.8" font-family="Times,serif" font-size="14.00" fill="#000000">getRecipVec</text>
</g>
<!-- sim_utilities__CrystalStr&#45;&gt;sim_utilities__CrystalStr__getRecipVec -->
<g id="edge11" class="edge">
<title>sim_utilities__CrystalStr&#45;&gt;sim_utilities__CrystalStr__getRecipVec</title>
<path fill="none" stroke="#838b8b" stroke-dasharray="5,2" d="M207.8232,-162.1993C222.2521,-152.2101 241.1122,-139.1531 257.0214,-128.139"/>
<polygon fill="#838b8b" stroke="#838b8b" points="259.2797,-130.8325 265.5094,-122.2627 255.2952,-125.0772 259.2797,-130.8325"/>
</g>
<!-- sim_utilities__CrystalStr__setPrim -->
<g id="node10" class="node">
<title>sim_utilities__CrystalStr__setPrim</title>
<ellipse fill="#ffffff" fill-opacity="0.698039" stroke="#000000" cx="399" cy="-106" rx="37.2594" ry="18"/>
<text text-anchor="middle" x="399" y="-101.8" font-family="Times,serif" font-size="14.00" fill="#000000">setPrim</text>
</g>
<!-- sim_utilities__CrystalStr&#45;&gt;sim_utilities__CrystalStr__setPrim -->
<g id="edge16" class="edge">
<title>sim_utilities__CrystalStr&#45;&gt;sim_utilities__CrystalStr__setPrim</title>
<path fill="none" stroke="#838b8b" stroke-dasharray="5,2" d="M221.5955,-166.9541C255.7762,-156.4681 308.1194,-139.9766 353,-124 355.5626,-123.0878 358.1963,-122.1253 360.8443,-121.1389"/>
<polygon fill="#838b8b" stroke="#838b8b" points="362.2889,-124.3342 370.3934,-117.5102 359.8023,-117.7908 362.2889,-124.3342"/>
</g>
<!-- sim_utilities__Detector__BackProj -->
<g id="node11" class="node">
<title>sim_utilities__Detector__BackProj</title>
<ellipse fill="#ffffff" fill-opacity="0.698039" stroke="#000000" cx="497" cy="-106" rx="43.0387" ry="18"/>
<text text-anchor="middle" x="497" y="-101.8" font-family="Times,serif" font-size="14.00" fill="#000000">BackProj</text>
</g>
<!-- sim_utilities__Detector&#45;&gt;sim_utilities__Detector__BackProj -->
<g id="edge8" class="edge">
<title>sim_utilities__Detector&#45;&gt;sim_utilities__Detector__BackProj</title>
<path fill="none" stroke="#838b8b" stroke-dasharray="5,2" d="M765.2054,-171.4773C715.2744,-162.5166 624.7907,-145.0868 549,-124 545.8247,-123.1166 542.5608,-122.1443 539.2899,-121.1233"/>
<polygon fill="#838b8b" stroke="#838b8b" points="540.1299,-117.7161 529.5377,-117.9536 537.9661,-124.3733 540.1299,-117.7161"/>
</g>
<!-- sim_utilities__Detector__Idx2LabCord -->
<g id="node12" class="node">
<title>sim_utilities__Detector__Idx2LabCord</title>
<ellipse fill="#ffffff" fill-opacity="0.698039" stroke="#000000" cx="616" cy="-106" rx="57.5065" ry="18"/>
<text text-anchor="middle" x="616" y="-101.8" font-family="Times,serif" font-size="14.00" fill="#000000">Idx2LabCord</text>
</g>
<!-- sim_utilities__Detector&#45;&gt;sim_utilities__Detector__Idx2LabCord -->
<g id="edge6" class="edge">
<title>sim_utilities__Detector&#45;&gt;sim_utilities__Detector__Idx2LabCord</title>
<path fill="none" stroke="#838b8b" stroke-dasharray="5,2" d="M772.1208,-166.1107C742.0622,-154.5373 696.0235,-136.8112 661.7192,-123.6031"/>
<polygon fill="#838b8b" stroke="#838b8b" points="662.9676,-120.3334 652.3778,-120.0064 660.4524,-126.8659 662.9676,-120.3334"/>
</g>
<!-- sim_utilities__Detector__IntersectionIdx -->
<g id="node13" class="node">
<title>sim_utilities__Detector__IntersectionIdx</title>
<ellipse fill="#ffffff" fill-opacity="0.698039" stroke="#000000" cx="755" cy="-106" rx="63.7769" ry="18"/>
<text text-anchor="middle" x="755" y="-101.8" font-family="Times,serif" font-size="14.00" fill="#000000">IntersectionIdx</text>
</g>
<!-- sim_utilities__Detector&#45;&gt;sim_utilities__Detector__IntersectionIdx -->
<g id="edge5" class="edge">
<title>sim_utilities__Detector&#45;&gt;sim_utilities__Detector__IntersectionIdx</title>
<path fill="none" stroke="#838b8b" stroke-dasharray="5,2" d="M791.3805,-160.5708C785.6875,-152.0312 778.7146,-141.5719 772.4019,-132.1029"/>
<polygon fill="#838b8b" stroke="#838b8b" points="775.3051,-130.1479 766.8459,-123.7689 769.4808,-134.0309 775.3051,-130.1479"/>
</g>
<!-- sim_utilities__Detector__Move -->
<g id="node14" class="node">
<title>sim_utilities__Detector__Move</title>
<ellipse fill="#ffffff" fill-opacity="0.698039" stroke="#000000" cx="867" cy="-106" rx="30.9793" ry="18"/>
<text text-anchor="middle" x="867" y="-101.8" font-family="Times,serif" font-size="14.00" fill="#000000">Move</text>
</g>
<!-- sim_utilities__Detector&#45;&gt;sim_utilities__Detector__Move -->
<g id="edge10" class="edge">
<title>sim_utilities__Detector&#45;&gt;sim_utilities__Detector__Move</title>
<path fill="none" stroke="#838b8b" stroke-dasharray="5,2" d="M818.1671,-160.937C826.3339,-151.7494 836.5455,-140.2613 845.5165,-130.1689"/>
<polygon fill="#838b8b" stroke="#838b8b" points="848.3546,-132.2443 852.3823,-122.4449 843.1227,-127.5937 848.3546,-132.2443"/>
</g>
<!-- sim_utilities__Detector__Print -->
<g id="node15" class="node">
<title>sim_utilities__Detector__Print</title>
<ellipse fill="#ffffff" fill-opacity="0.698039" stroke="#000000" cx="943" cy="-106" rx="27.113" ry="18"/>
<text text-anchor="middle" x="943" y="-101.8" font-family="Times,serif" font-size="14.00" fill="#000000">Print</text>
</g>
<!-- sim_utilities__Detector&#45;&gt;sim_utilities__Detector__Print -->
<g id="edge4" class="edge">
<title>sim_utilities__Detector&#45;&gt;sim_utilities__Detector__Print</title>
<path fill="none" stroke="#838b8b" stroke-dasharray="5,2" d="M829.6625,-164.2879C853.1588,-152.2041 887.395,-134.5968 912.0845,-121.8994"/>
<polygon fill="#838b8b" stroke="#838b8b" points="913.7451,-124.9812 921.0372,-117.2951 910.5436,-118.7562 913.7451,-124.9812"/>
</g>
<!-- sim_utilities__Detector__Reset -->
<g id="node16" class="node">
<title>sim_utilities__Detector__Reset</title>
<ellipse fill="#ffffff" fill-opacity="0.698039" stroke="#000000" cx="1018" cy="-106" rx="29.5104" ry="18"/>
<text text-anchor="middle" x="1018" y="-101.8" font-family="Times,serif" font-size="14.00" fill="#000000">Reset</text>
</g>
<!-- sim_utilities__Detector&#45;&gt;sim_utilities__Detector__Reset -->
<g id="edge7" class="edge">
<title>sim_utilities__Detector&#45;&gt;sim_utilities__Detector__Reset</title>
<path fill="none" stroke="#838b8b" stroke-dasharray="5,2" d="M834.0951,-166.4403C840.33,-164.2259 846.8535,-161.982 853,-160 908.4304,-142.1262 924.3978,-144.2633 979,-124 981.1018,-123.22 983.2477,-122.375 985.3985,-121.491"/>
<polygon fill="#838b8b" stroke="#838b8b" points="986.9518,-124.6325 994.7369,-117.4462 984.1695,-118.2091 986.9518,-124.6325"/>
</g>
<!-- sim_utilities__Detector____init__ -->
<g id="node17" class="node">
<title>sim_utilities__Detector____init__</title>
<ellipse fill="#ffffff" fill-opacity="0.698039" stroke="#000000" cx="1023" cy="-34" rx="39.6731" ry="18"/>
<text text-anchor="middle" x="1023" y="-29.8" font-family="Times,serif" font-size="14.00" fill="#000000">__init__</text>
</g>
<!-- sim_utilities__Detector&#45;&gt;sim_utilities__Detector____init__ -->
<g id="edge9" class="edge">
<title>sim_utilities__Detector&#45;&gt;sim_utilities__Detector____init__</title>
<path fill="none" stroke="#838b8b" stroke-dasharray="5,2" d="M833.6781,-166.0251C840.0051,-163.8195 846.6699,-161.6847 853,-160 897.4853,-148.1605 1027.4125,-159.266 1057,-124 1072.8042,-105.1626 1059.1882,-78.2282 1044.7624,-58.7386"/>
<polygon fill="#838b8b" stroke="#838b8b" points="1047.3238,-56.3331 1038.3976,-50.6257 1041.8164,-60.6538 1047.3238,-56.3331"/>
</g>
<!-- sim_utilities__CrystalStr____init__&#45;&gt;sim_utilities__CrystalStr__addAtom -->
<g id="edge18" class="edge">
<title>sim_utilities__CrystalStr____init__&#45;&gt;sim_utilities__CrystalStr__addAtom</title>
<path fill="none" stroke="#000000" d="M57.0094,-87.8314C57.4372,-80.131 57.9459,-70.9743 58.4213,-62.4166"/>
<polygon fill="#000000" stroke="#000000" points="61.9169,-62.592 58.977,-52.4133 54.9276,-62.2037 61.9169,-62.592"/>
</g>
<!-- sim_utilities__CrystalStr__getGs&#45;&gt;sim_utilities__CrystalStr__calStructFactor -->
<g id="edge19" class="edge">
<title>sim_utilities__CrystalStr__getGs&#45;&gt;sim_utilities__CrystalStr__calStructFactor</title>
<path fill="none" stroke="#000000" d="M185,-87.8314C185,-80.131 185,-70.9743 185,-62.4166"/>
<polygon fill="#000000" stroke="#000000" points="188.5001,-62.4132 185,-52.4133 181.5001,-62.4133 188.5001,-62.4132"/>
</g>
<!-- sim_utilities__Detector__Reset&#45;&gt;sim_utilities__Detector____init__ -->
<g id="edge17" class="edge">
<title>sim_utilities__Detector__Reset&#45;&gt;sim_utilities__Detector____init__</title>
<path fill="none" stroke="#000000" d="M1019.2617,-87.8314C1019.7965,-80.131 1020.4323,-70.9743 1021.0266,-62.4166"/>
<polygon fill="#000000" stroke="#000000" points="1024.52,-62.6317 1021.7213,-52.4133 1017.5368,-62.1467 1024.52,-62.6317"/>
</g>
</g>
</svg>
